<svg width="989" height="635" viewBox="0 0 989 635" fill="none" xmlns="http://www.w3.org/2000/svg">
<g filter="url(#filter0_i_2311_6129)">
<path fill-rule="evenodd" clip-rule="evenodd" d="M711.301 38.232H611.503L598.45 16.7305H584.013L608.03 54.9625H711.299H814.568L838.584 16.7305H824.151L811.099 38.232H711.301ZM598.442 16.7164L588.294 0H711.301H834.308L824.16 16.7164H988.333V618.871H904.9L854.649 571.082H638.564H422.48L372.229 618.871H0V152.918L121.937 16.7164H598.442ZM441.572 594.97H638.564H835.557L881.369 634.316H638.564H395.76L441.572 594.97ZM40.6465 385.908L40.6465 501.258L0.000738144 528.083L0.000743708 385.908L0.000749272 243.732L40.6465 270.558L40.6465 385.908Z" fill="#367CFF" fill-opacity="0.6"/>
</g>
<defs>
<filter id="filter0_i_2311_6129" x="0" y="0" width="988.332" height="634.316" filterUnits="userSpaceOnUse" color-interpolation-filters="sRGB">
<feFlood flood-opacity="0" result="BackgroundImageFix"/>
<feBlend mode="normal" in="SourceGraphic" in2="BackgroundImageFix" result="shape"/>
<feColorMatrix in="SourceAlpha" type="matrix" values="0 0 0 0 0 0 0 0 0 0 0 0 0 0 0 0 0 0 127 0" result="hardAlpha"/>
<feOffset/>
<feGaussianBlur stdDeviation="16.746"/>
<feComposite in2="hardAlpha" operator="arithmetic" k2="-1" k3="1"/>
<feColorMatrix type="matrix" values="0 0 0 0 0.211765 0 0 0 0 0.486275 0 0 0 0 1 0 0 0 0.6 0"/>
<feBlend mode="normal" in2="shape" result="effect1_innerShadow_2311_6129"/>
</filter>
</defs>
</svg>
